<?xml version="1.0" encoding="UTF-8"?>
<svg width="256px" height="256px" viewBox="0 0 256 256" version="1.1" xmlns="http://www.w3.org/2000/svg">
    <g stroke="none" stroke-width="1" fill="none" fill-rule="evenodd">
        <path d="M128,256 C198.692448,256 256,198.692448 256,128 C256,57.307552 198.692448,0 128,0 C57.307552,0 0,57.307552 0,128 C0,198.692448 57.307552,256 128,256 Z" fill="#F97316"/>
        <path d="M76,96 L180,96 L180,160 L76,160 L76,96 Z M89.5857864,107.585786 L128,146 L166.414214,107.585786 L89.5857864,107.585786 Z M87,110.414214 L87,148.585786 L108.585786,127 L87,110.414214 Z M169,110.414214 L147.414214,127 L169,148.585786 L169,110.414214 Z M108.585786,129 L87,150.585786 L169,150.585786 L147.414214,129 L128,148.414214 L108.585786,129 Z" fill="#FFFFFF" fill-rule="nonzero"/>
    </g>
</svg>